<?xml version="1.0" encoding="UTF-8" standalone="no"?>
<!DOCTYPE svg PUBLIC "-//W3C//DTD SVG 1.1//EN" "http://www.w3.org/Graphics/SVG/1.1/DTD/svg11.dtd">
<svg width="100%" height="100%" viewBox="0 0 1485 291" version="1.1" xmlns="http://www.w3.org/2000/svg" xmlns:xlink="http://www.w3.org/1999/xlink" xml:space="preserve" xmlns:serif="http://www.serif.com/" style="fill-rule:evenodd;clip-rule:evenodd;stroke-linejoin:round;stroke-miterlimit:2;">
    <g id="アートボード1" transform="matrix(0.838319,0,0,0.657835,-742.529,-3629.43)">
        <rect x="885.735" y="5517.23" width="1770.58" height="441.999" style="fill:none;"/>
        <clipPath id="_clip1">
            <rect x="885.735" y="5517.23" width="1770.58" height="441.999"/>
        </clipPath>
        <g clip-path="url(#_clip1)">
            <g transform="matrix(1.11733,0,0,1.42388,791.86,-3858.81)">
                <g transform="matrix(4.16667,0,0,4.16667,0,6465.64)">
                    <path d="M46.18,83.367C44.094,83.18 40.895,82.328 39.035,80.816C37.168,79.301 36.387,77.73 36.313,74.918C36.234,71.98 36.234,48.395 36.234,48.395L45.723,48.395C45.723,48.395 45.785,74.348 45.801,75.223C45.816,76.094 46.188,77.313 47.113,78.074C48.043,78.832 49.699,79.211 51.023,79.211C52.981,79.211 54.719,78.832 55.648,78.074C56.574,77.313 56.785,76.625 56.965,75.223C57.121,73.98 57.043,48.395 57.043,48.395L64.742,48.395C64.742,48.395 64.742,71.934 64.668,74.918C64.598,77.629 63.813,79.269 61.949,80.797C60.113,82.301 57.566,83.195 55.406,83.367C51.988,83.633 49.043,83.617 46.18,83.367" style="fill:rgb(45,57,131);fill-rule:nonzero;"/>
                </g>
                <g transform="matrix(4.16667,0,0,4.16667,0,6463.68)">
                    <path d="M70.016,80.707L70.016,48.863L93.758,48.863L93.758,52.738L79.504,52.738L79.504,63.402L91.512,63.402L91.512,67.242L79.504,67.242L79.504,79.754L93.758,79.754L93.758,83.633L73.098,83.633C70.699,83.633 70.016,82.516 70.016,80.707" style="fill:rgb(45,57,131);fill-rule:nonzero;"/>
                </g>
                <g transform="matrix(4.16667,0,0,4.16667,0,6453.53)">
                    <path d="M99.777,83.996L100.152,83.785C102.402,82.539 104.613,81.219 106.73,79.863L106.754,79.844C106.465,79.219 106.301,78.535 106.281,77.949C106.125,73.211 106.148,65.035 106.281,59.926C106.328,58.106 106.508,57.293 107.684,56.309C108.605,55.535 110.195,55.16 111.5,55.102C112.832,55.035 113.109,55.027 115.813,55.102C118.504,55.172 120.164,55.559 120.535,58.121L125.301,58.121C124.941,52.981 121.777,51.359 115.813,51.148C109.859,50.938 108.805,51.047 106.281,51.223C103.863,51.391 101.379,52.066 99.547,53.602C97.711,55.129 96.891,56.609 96.797,59.773C96.555,67.691 96.555,71.356 96.797,77.645C96.855,79.293 97.125,81.531 99.59,83.848L99.777,83.996" style="fill:rgb(45,57,131);fill-rule:nonzero;"/>
                </g>
                <g transform="matrix(4.16667,0,0,4.16667,0,6581.73)">
                    <path d="M115.813,51.551C113.164,51.605 113.012,51.598 111.504,51.551C111.176,51.539 110.852,51.504 110.527,51.453L109.754,51.934C108.012,53.02 106.176,54.094 104.305,55.148C105.098,55.312 105.809,55.406 106.281,55.426C108.203,55.516 110.344,55.637 115.813,55.504C121.172,55.371 124.887,53.668 125.305,48.527L120.535,48.527C120.176,51.086 118.488,51.492 115.813,51.551" style="fill:rgb(45,57,131);fill-rule:nonzero;"/>
                </g>
                <g transform="matrix(4.16667,0,0,4.16667,0,6468.16)">
                    <clipPath id="_clip2">
                        <path d="M47.816,66.621C47.527,66.859 47.242,67.09 46.965,67.324L46.965,67.445C46.965,68.047 46.965,68.621 46.969,69.156C47.477,68.66 48.012,68.16 48.559,67.66C52.047,64.492 54.559,62.649 54.285,62.301L54.18,62.266C53.543,62.266 50.57,64.391 47.816,66.621Z" clip-rule="nonzero"/>
                    </clipPath>
                    <g clip-path="url(#_clip2)">
                        <path d="M47.816,66.621C47.527,66.859 47.242,67.09 46.965,67.324L46.965,67.445C46.965,68.047 46.965,68.621 46.969,69.156C47.477,68.66 48.012,68.16 48.559,67.66C52.047,64.492 54.559,62.649 54.285,62.301L54.18,62.266C53.543,62.266 50.57,64.391 47.816,66.621" style="fill:url(#_Linear3);fill-rule:nonzero;"/>
                    </g>
                </g>
                <g transform="matrix(4.16667,0,0,4.16667,0,6505.85)">
                    <clipPath id="_clip4">
                        <path d="M95.75,32.797C92.074,33.906 89.738,34.727 89.855,35.02C89.969,35.316 94.375,33.941 95.945,33.535C112.91,29.082 126.813,30 130.133,37.113C134.676,46.86 117.801,64.352 92.441,76.18C67.082,88.004 42.84,89.688 38.297,79.941C37.258,77.715 37.336,75.059 38.379,72.164C37.379,71.344 36.625,70.52 36.078,69.566C33.867,72.684 32.481,75.645 32.066,78.309L32.066,81.481C32.188,82.152 32.391,82.805 32.68,83.418C37.508,93.781 64.648,91.356 93.289,78C121.938,64.645 141.242,45.41 136.406,35.047C134.383,30.711 128.477,28.594 120.176,28.594C113.367,28.594 104.953,30.016 95.75,32.797Z" clip-rule="nonzero"/>
                    </clipPath>
                    <g clip-path="url(#_clip4)">
                        <path d="M95.75,32.797C92.074,33.906 89.738,34.727 89.855,35.02C89.969,35.317 94.375,33.941 95.945,33.535C112.91,29.082 126.813,30 130.133,37.113C134.676,46.859 117.801,64.352 92.441,76.18C67.082,88.004 42.84,89.688 38.297,79.942C37.258,77.715 37.336,75.059 38.379,72.164C37.379,71.344 36.625,70.52 36.078,69.567C33.867,72.684 32.481,75.645 32.066,78.309L32.066,81.481C32.188,82.152 32.391,82.805 32.68,83.418C37.508,93.781 64.648,91.356 93.289,78C121.938,64.645 141.242,45.41 136.406,35.047C134.383,30.711 128.477,28.594 120.176,28.594C113.367,28.594 104.953,30.016 95.75,32.797" style="fill:url(#_Linear5);fill-rule:nonzero;"/>
                    </g>
                </g>
                <g transform="matrix(0,4.16667,4.16667,0,51.2858,6675.35)">
                    <clipPath id="_clip6">
                        <path d="M47.004,28.852C50.223,28.852 52.84,31.469 52.84,34.695C52.84,37.918 50.223,40.535 47.004,40.535C43.781,40.535 41.164,37.918 41.164,34.695C41.164,31.469 43.781,28.852 47.004,28.852Z" clip-rule="nonzero"/>
                    </clipPath>
                    <g clip-path="url(#_clip6)">
                        <path d="M47.004,28.852C50.223,28.852 52.84,31.469 52.84,34.695C52.84,37.918 50.223,40.535 47.004,40.535C43.781,40.535 41.164,37.918 41.164,34.695C41.164,31.469 43.781,28.852 47.004,28.852" style="fill:url(#_Radial7);fill-rule:nonzero;"/>
                    </g>
                </g>
                <g transform="matrix(0,4.16667,4.16667,0,240.518,6211.04)">
                    <clipPath id="_clip8">
                        <path d="M125.424,62.975C128.033,62.975 130.158,65.092 130.158,67.71C130.158,70.319 128.033,72.432 125.424,72.432C122.814,72.432 120.697,70.319 120.697,67.71C120.697,65.092 122.814,62.975 125.424,62.975Z" clip-rule="nonzero"/>
                    </clipPath>
                    <g clip-path="url(#_clip8)">
                        <path d="M125.424,62.975C128.033,62.975 130.158,65.092 130.158,67.71C130.158,70.319 128.033,72.432 125.424,72.432C122.814,72.432 120.697,70.319 120.697,67.71C120.697,65.092 122.814,62.975 125.424,62.975" style="fill:url(#_Radial9);fill-rule:nonzero;"/>
                    </g>
                </g>
                <g transform="matrix(0,4.16667,4.16667,0,68.4083,6181.54)">
                    <clipPath id="_clip10">
                        <path d="M108.313,89.297C109.75,89.297 110.914,90.461 110.914,91.898C110.914,93.336 109.75,94.496 108.313,94.496C106.879,94.496 105.715,93.336 105.715,91.898C105.715,90.461 106.879,89.297 108.313,89.297Z" clip-rule="nonzero"/>
                    </clipPath>
                    <g clip-path="url(#_clip10)">
                        <path d="M108.313,89.297C109.75,89.297 110.914,90.461 110.914,91.898C110.914,93.336 109.75,94.496 108.313,94.496C106.879,94.496 105.715,93.336 105.715,91.898C105.715,90.461 106.879,89.297 108.313,89.297" style="fill:url(#_Radial11);fill-rule:nonzero;"/>
                    </g>
                </g>
                <g transform="matrix(4.16667,0,0,4.16667,0,6461.39)">
                    <rect x="152.242" y="32.824" width="0.645" height="67.398" style="fill:rgb(34,25,21);"/>
                </g>
                <g transform="matrix(4.16667,0,0,4.16667,0,6463.24)">
                    <path d="M378.016,48.703L376.34,49.766C378.117,52.773 379.125,55.914 379.195,56.113L371.113,56.113L374.289,53.855C372.668,51.914 369.832,49.445 367.715,48.746L366.246,49.977C368.398,52.664 370.121,55.875 370.297,56.113L363.445,56.113L363.445,64.07L367.527,64.07L367.527,57.894L394.086,57.894L394.086,63.953L398.238,63.953L398.238,56.113L379.469,56.113L383.191,53.898C381.719,51.637 379.637,49.637 378.016,48.703M390.297,48.715C389.254,51.066 388.707,52.351 386.914,54.922L388.656,56.031C390.211,55.351 392.328,53.875 394.105,51.918C394.684,51.281 394.941,50.879 394.941,50.879L390.297,48.715M278.027,48.914L256.402,48.914L256.402,50.687L271.91,50.687C271.125,51.516 270.063,52.496 267.691,54.156C266.035,53.207 264.973,52.656 264.07,52.183L262.844,53.762C265.047,55.351 267.605,57.469 268.016,57.824L257.359,57.824L257.359,79.34L261.098,79.34L261.098,71.281L266.512,71.281L266.512,79.094L270.254,79.094L270.254,71.281L275.703,71.281L275.703,76.211C275.703,77.324 275.719,77.551 274.133,77.586C274.008,77.59 273.863,77.59 273.707,77.59C273.395,77.59 273.035,77.586 272.645,77.586L272.645,79.367L275.703,79.367C277.906,79.367 279.527,78.816 279.527,76.055L279.527,57.824L270.527,57.824L271.758,56.68C271.363,56.445 271.246,56.328 269.977,55.539C272.746,54.117 275.43,52.387 278.027,50.687L278.027,48.914M270.254,59.598L275.703,59.598L275.703,63.664L270.254,63.664L270.254,59.598ZM261.098,59.601L266.512,59.601L266.512,63.664L261.098,63.664L261.098,59.601ZM270.254,65.441L275.703,65.441L275.703,69.504L270.254,69.504L270.254,65.441ZM261.098,65.441L266.512,65.441L266.512,69.504L261.098,69.504L261.098,65.441ZM343.754,48.922L339.43,48.922L339.43,57.605L323.68,57.605L323.68,59.391L339.359,59.391C338.34,72.215 330.02,78.551 323.137,82.113L324.52,83.781C332.43,80.453 337.891,76.387 341.703,68.582C342.914,71.512 346.18,78.777 358.75,83.762L360.27,81.945C349.215,77.43 344.504,67.82 343.836,59.391L359.859,59.391L359.859,57.605L343.754,57.605L343.754,48.922M297.051,48.922L291.93,48.922C291.297,51.062 289.621,58.785 283.797,65.687L285.367,66.953C286.328,65.965 287.266,64.937 288.738,63.164L288.738,83.816L292.832,83.816L292.832,57.324C294.406,54.68 295.309,52.785 295.91,51.488C296.148,50.953 297.051,48.922 297.051,48.922M219.098,48.922L214.195,48.922C212.145,56.746 207.566,60.625 206.664,61.492L208.32,62.672C211.172,60.66 214.094,56.871 216.262,54.148L241.988,54.148L241.988,52.41L217.609,52.41C217.887,52 217.953,51.902 217.949,51.902C217.945,51.902 217.93,51.926 217.914,51.949C217.891,51.973 217.875,51.992 217.871,51.992C217.863,51.992 217.887,51.953 217.969,51.816C218.277,51.316 219.098,48.922 219.098,48.922M199.316,48.922L171.465,48.922L171.465,50.66L183.379,50.66L183.379,53.508L168.113,53.508L168.113,62.461L171.941,62.461L171.941,55.246L183.379,55.246L183.379,64.808L187.402,64.808L187.402,55.246L198.719,55.246L198.719,62.461L202.633,62.461L202.633,53.508L187.402,53.508L187.402,50.66L199.316,50.66L199.316,48.922M247.504,48.933L246.066,50.121C249.227,53.867 251.207,58.719 251.688,59.906L255.188,56.984C254.402,56 251.277,52.055 247.504,48.933M317.957,50.094L298.23,50.094L298.23,51.867L317.957,51.867L317.957,50.094ZM320.488,55.473L295.754,55.473L295.754,57.246L320.488,57.246L320.488,55.473ZM238.93,57.582L214.317,57.582L214.317,59.355L238.93,59.355L238.93,57.582ZM197.184,57.621L189.34,57.621L189.34,59.394L197.184,59.394L197.184,57.621ZM181.285,57.621L173.637,57.621L173.637,59.394L181.285,59.394L181.285,57.621ZM318.625,60.769L297.531,60.769L297.531,62.559L318.625,62.559L318.625,60.769ZM392.262,61.715L369.031,61.715L369.031,63.469L385.922,63.469L382.199,68.055L378.527,68.055L378.527,70.23L362.574,70.23L362.574,72.008L378.527,72.008L378.527,79.492C378.527,81.195 378.289,81.305 376.152,81.305L372.516,81.305L372.516,83.062L378.766,83.062C382.406,83.062 382.797,81.793 382.797,79.453L382.797,72.008L399.023,72.008L399.023,70.23L382.797,70.23L382.797,69.961C383.121,69.726 385.973,67.902 387.547,66.875C389.223,65.808 391.422,64.144 392.262,63.469L392.262,61.715M197.184,62.047L189.34,62.047L189.34,63.785L197.184,63.785L197.184,62.047ZM181.285,62.047L173.637,62.047L173.637,63.785L181.285,63.785L181.285,62.047ZM210.883,63.469L210.883,65.207L233.699,65.207L233.668,65.246L233.668,80.273C233.668,83.824 236.039,83.824 237.852,83.824L243.266,83.824L243.266,82.086L239.664,82.086C237.973,82.086 237.645,81.812 237.645,80.113L237.664,63.473L210.883,63.469M254.164,64.687L246.066,64.687L246.066,66.469L250.219,66.469L250.219,78.34L245.52,81.101L246.973,83.898C246.973,83.898 251.039,80.746 252.234,79.566C254.164,82.957 256.488,83.832 262.414,83.832L281.766,83.832L281.766,82.062L263.199,82.062C256.289,82.062 254.676,80.027 254.164,76.644L254.164,64.687M199.523,66.152L170.594,66.152L170.594,79.23L183.023,79.23L183.023,80.273C183.023,83.824 185.391,83.824 187.207,83.824L202.582,83.824L202.582,82.086L189.02,82.086C187.328,82.086 187.008,81.812 187.008,80.113L187.008,79.23L199.523,79.23L199.523,66.152M187.008,67.926L195.492,67.926L195.492,71.723L187.008,71.723L187.008,67.926ZM174.508,67.926L183.028,67.926L183.028,71.723L174.508,71.723L174.508,67.926ZM187.008,73.5L195.492,73.5L195.492,77.457L187.008,77.457L187.008,73.5ZM174.508,73.5L183.028,73.5L183.028,77.457L174.508,77.457L174.508,73.5ZM318.625,66.156L297.531,66.156L297.531,67.934L318.625,67.934L318.625,66.156ZM224.258,66.508C223.813,68.137 222.684,71.125 220.941,73.644C218.348,72.027 216.125,70.808 214.008,69.621L212.93,71.203C215.664,72.898 217.832,74.594 219.285,75.855C215.512,80.039 210.934,81.508 208.371,82.375L209.465,83.832C214.828,82.301 218.805,80.469 221.66,77.949C222.172,78.461 224.461,80.551 226.867,83.746L229.945,80.633C228.801,79.566 226.867,77.789 223.914,75.656C226.031,73.094 227.246,70.82 228.016,69.543C228.34,68.976 228.492,68.5 228.492,68.5L224.258,66.508M318.508,71.949L297.379,71.949L297.379,83.832L318.508,83.832L318.508,71.949M301.391,73.726L314.492,73.726L314.492,82.058L301.391,82.058" style="fill:rgb(62,59,60);fill-rule:nonzero;"/>
                </g>
                <g transform="matrix(4.16667,0,0,4.16667,0,6225.77)">
                    <path d="M236.551,89.371L235.176,89.371L235.176,91.903C235.176,94.922 234.438,96.239 233.277,97.532C232.105,98.864 230.754,99.411 230.035,99.7L230.488,100.2C233.395,99.176 234.914,97.657 235.93,95.571C236.734,97.411 237.953,99.055 241.352,100.2L241.688,99.637C240.75,99.266 239.387,98.739 238.203,97.246C236.602,95.231 236.551,92.797 236.551,92.473L236.551,89.371M225.539,89.371L224.199,89.371L224.199,91.375L221.063,91.375L221.063,91.934L224.199,91.934L224.199,94.102L220.539,94.102L220.539,94.66L223.422,94.66C223.051,95.852 221.805,98.293 221.195,99.117C220.691,99.149 220.648,99.157 220.48,99.157C220.41,99.157 220.32,99.153 220.164,99.153L220.586,100.2C223.406,99.762 225.574,99.071 227.488,98.672C227.836,99.383 228.012,99.821 228.156,100.203L229.316,99.442C228.777,98.489 227.414,96.598 226.324,95.641L225.824,95.977C226.625,97.036 227.078,97.879 227.223,98.164C225.703,98.391 224.285,98.817 222.117,99.032C223.109,97.735 224.148,96.086 224.938,94.66L229.176,94.66L229.176,94.102L225.539,94.102L225.539,91.934L228.738,91.934L228.738,91.375L225.539,91.375L225.539,89.371M219.07,89.371L218.566,89.371L218.352,89.684C218.887,90.067 219.809,90.938 220.238,91.461L221.137,90.469C220.281,89.965 219.809,89.703 219.07,89.371M214.664,89.371L214.074,89.371C213.797,89.989 213.602,90.395 213.086,91.133L213.648,91.489C214.148,91.27 214.832,90.797 215.395,90.168C215.574,89.965 215.668,89.832 215.668,89.832L214.664,89.371M210.582,89.371L209.875,89.371L209.699,89.481C210.277,90.442 210.586,91.45 210.621,91.512L208.027,91.512L209.043,90.793C208.641,90.305 207.996,89.711 207.406,89.371L206.68,89.371L206.473,89.547C207.152,90.411 207.715,91.434 207.762,91.512L205.563,91.512L205.563,94.063L206.879,94.063L206.879,92.082L215.383,92.082L215.383,94.024L216.723,94.024L216.723,91.512L210.703,91.512L211.898,90.805C211.523,90.235 211.031,89.711 210.582,89.371M199.34,89.371L197.977,89.371L197.977,91.946L193.004,91.946L193.004,92.508L197.953,92.508C197.633,96.571 195,98.575 192.824,99.7L193.27,100.223C195.766,99.172 197.5,97.887 198.699,95.418C199.078,96.348 200.109,98.645 204.09,100.223L204.566,99.645C201.074,98.219 199.582,95.18 199.379,92.508L204.449,92.508L204.449,91.946L199.34,91.946L199.34,89.371M186.84,89.371L185.48,89.371L185.48,91.239L181.047,91.239L181.047,91.786L191.34,91.786L191.34,91.239L186.84,91.239L186.84,89.371M179.438,89.371L168.113,89.371L168.113,100.2L179.438,100.2L179.438,89.371ZM169.531,89.758L178.035,89.758L178.035,99.637L169.531,99.637L169.531,89.758ZM177.281,91.571L170.34,91.571L170.34,92.129L173.051,92.129L173.051,94.18L170.91,94.18L170.91,94.739L173.051,94.739L173.051,97.301L170.031,97.301L170.031,97.86L177.539,97.86L177.539,97.301L174.484,97.301L174.484,94.739L176.727,94.739L176.727,94.18L174.484,94.18L174.484,92.129L177.281,92.129L177.281,91.571M218.012,91.864L217.676,92.356C218.41,92.934 218.84,93.383 219.641,94.332L220.465,93.192C220.383,93.145 219.055,92.286 218.012,91.864M188.242,92.703C187.762,95.25 187.285,97.407 186.363,99.641L180.453,99.641L180.453,100.2L191.926,100.2L191.926,99.641L187.168,99.641C188.48,96.946 189.305,94.485 189.656,93.477L189.82,93.242C189.82,93.188 189.797,93.141 189.664,93.102L188.242,92.703M183.262,93.055L182.688,93.317C183.262,94.657 183.801,97.094 183.859,98.883L185.313,98.332C185.027,96.844 184.094,94.418 183.262,93.055M214.809,93.313L207.359,93.313L207.359,93.871L212.773,93.871L211.578,95.34L210.395,95.34L210.395,96.039L205.289,96.039L205.289,96.61L210.395,96.61L210.395,99.008C210.395,99.555 210.32,99.586 209.641,99.586L208.469,99.586L208.469,100.153L210.477,100.153C211.641,100.153 211.77,99.742 211.77,98.996L211.77,96.61L216.973,96.61L216.973,96.039L211.77,96.039L211.77,95.953C211.879,95.875 212.785,95.293 213.289,94.965C213.828,94.621 214.531,94.086 214.809,93.871L214.809,93.313M220.395,94.86C219.723,96.422 218.492,98.641 217.727,99.371L218.805,100.184C219.582,99.137 220.645,96.106 220.898,95.321L220.395,94.86M175.336,94.989L174.824,95.301C175.508,96.219 175.688,96.719 175.809,97.012L176.852,96.242C176.348,95.7 176.051,95.473 175.336,94.989" style="fill:rgb(62,59,60);fill-rule:nonzero;"/>
                </g>
                <g transform="matrix(4.16667,0,0,4.16667,0,6700.76)">
                    <path d="M176.762,33.465L170.578,33.465L170.578,34.359L173.148,34.359L173.148,42.133L174.18,42.133L174.18,34.359L176.762,34.359" style="fill:rgb(62,59,60);fill-rule:nonzero;"/>
                </g>
                <g transform="matrix(4.16667,0,0,4.16667,0,6697.85)">
                    <path d="M178.789,33.465L177.84,33.465L177.84,42.832L178.789,42.832L178.789,39.336C178.789,39.051 178.82,38.769 178.883,38.492C178.941,38.215 179.039,37.973 179.172,37.758C179.309,37.547 179.488,37.371 179.715,37.238C179.934,37.105 180.219,37.035 180.555,37.035C180.867,37.035 181.117,37.09 181.309,37.199C181.5,37.308 181.648,37.449 181.75,37.629C181.855,37.808 181.922,38.012 181.961,38.246C181.992,38.48 182.012,38.726 182.012,38.988L182.012,42.832L182.945,42.832L182.945,38.816C182.945,38.445 182.906,38.098 182.828,37.781C182.75,37.469 182.629,37.195 182.461,36.965C182.289,36.738 182.07,36.558 181.797,36.426C181.523,36.297 181.188,36.234 180.789,36.234C179.871,36.234 179.203,36.64 178.789,37.453L178.789,33.465" style="fill:rgb(62,59,60);fill-rule:nonzero;"/>
                </g>
                <g transform="matrix(4.16667,0,0,4.16667,0,6709.97)">
                    <path d="M187.207,33.324C186.777,33.324 186.387,33.418 186.043,33.609C185.703,33.797 185.414,34.051 185.18,34.367C184.949,34.684 184.766,35.039 184.641,35.441C184.516,35.84 184.453,36.246 184.453,36.66C184.453,37.145 184.512,37.598 184.625,38.012C184.734,38.43 184.91,38.785 185.156,39.09C185.398,39.391 185.707,39.633 186.082,39.805C186.461,39.977 186.91,40.063 187.43,40.063C187.758,40.063 188.098,40.039 188.449,39.984C188.801,39.938 189.125,39.848 189.43,39.727L189.352,38.844C189.23,38.914 189.094,38.977 188.941,39.031C188.789,39.09 188.633,39.133 188.469,39.176C188.305,39.211 188.137,39.246 187.973,39.266C187.809,39.285 187.656,39.297 187.52,39.297C187.184,39.297 186.883,39.234 186.625,39.109C186.363,38.984 186.145,38.813 185.969,38.598C185.789,38.379 185.656,38.129 185.57,37.844C185.484,37.555 185.441,37.258 185.441,36.945L189.77,36.945L189.77,36.555C189.77,36.121 189.719,35.711 189.625,35.32C189.527,34.934 189.379,34.59 189.176,34.289C188.973,33.992 188.707,33.754 188.383,33.582C188.059,33.41 187.664,33.324 187.207,33.324M185.441,36.246C185.441,36.027 185.477,35.793 185.551,35.535C185.625,35.281 185.738,35.043 185.891,34.828C186.043,34.613 186.227,34.434 186.449,34.289C186.668,34.145 186.926,34.078 187.219,34.078C187.516,34.078 187.766,34.141 187.965,34.277C188.168,34.41 188.332,34.582 188.457,34.785C188.574,35 188.664,35.23 188.719,35.484C188.777,35.742 188.805,35.992 188.805,36.246L185.441,36.246" style="fill:rgb(62,59,60);fill-rule:nonzero;"/>
                </g>
                <g transform="matrix(4.16667,0,0,4.16667,0,6701.35)">
                    <path d="M202.309,33.324L201.281,33.324L201.281,38.918C201.281,39.262 201.234,39.578 201.137,39.863C201.043,40.148 200.902,40.391 200.715,40.598C200.531,40.797 200.301,40.957 200.027,41.07C199.758,41.184 199.438,41.238 199.074,41.238C198.711,41.238 198.391,41.184 198.117,41.07C197.848,40.957 197.617,40.797 197.438,40.598C197.254,40.391 197.113,40.148 197.02,39.863C196.926,39.578 196.879,39.262 196.879,38.918L196.879,33.324L195.852,33.324L195.852,38.937C195.852,39.434 195.926,39.879 196.074,40.277C196.219,40.676 196.434,41.012 196.715,41.281C196.996,41.555 197.336,41.769 197.734,41.914C198.133,42.059 198.582,42.133 199.074,42.133C199.566,42.133 200.012,42.059 200.414,41.914C200.809,41.769 201.152,41.551 201.434,41.273C201.711,40.988 201.93,40.652 202.082,40.258C202.23,39.863 202.309,39.422 202.309,38.926L202.309,33.324" style="fill:rgb(62,59,60);fill-rule:nonzero;"/>
                </g>
                <g transform="matrix(4.16667,0,0,4.16667,0,6709.39)">
                    <path d="M207.18,33.465C206.242,33.465 205.547,33.875 205.09,34.707L205.051,33.59L204.176,33.59C204.207,33.84 204.223,34.098 204.23,34.351C204.238,34.605 204.242,34.859 204.242,35.113L204.242,40.063L205.191,40.063L205.191,36.582C205.191,36.293 205.223,36.012 205.277,35.734C205.332,35.457 205.43,35.211 205.57,34.996C205.707,34.777 205.887,34.601 206.117,34.469C206.34,34.336 206.621,34.266 206.961,34.266C207.273,34.266 207.523,34.324 207.715,34.43C207.902,34.539 208.051,34.68 208.152,34.863C208.258,35.047 208.328,35.254 208.363,35.488C208.395,35.723 208.414,35.969 208.414,36.23L208.414,40.063L209.348,40.063L209.348,36.047C209.348,35.676 209.316,35.332 209.246,35.012C209.176,34.695 209.055,34.426 208.887,34.195C208.719,33.965 208.496,33.785 208.219,33.656C207.941,33.523 207.594,33.465 207.18,33.465" style="fill:rgb(62,59,60);fill-rule:nonzero;"/>
                </g>
                <g transform="matrix(4.16667,0,0,4.16667,0,6699.18)">
                    <path d="M212.195,33.465L211.246,33.465L211.246,34.598L212.195,34.598L212.195,33.465ZM212.195,36.039L211.246,36.039L211.246,42.512L212.195,42.512L212.195,36.039Z" style="fill:rgb(62,59,60);fill-rule:nonzero;"/>
                </g>
                <g transform="matrix(4.16667,0,0,4.16667,0,6709.92)">
                    <path d="M218.754,33.465L217.77,33.465L216.027,39.101L214.297,33.465L213.273,33.465L215.445,39.934L216.559,39.934" style="fill:rgb(62,59,60);fill-rule:nonzero;"/>
                </g>
                <g transform="matrix(4.16667,0,0,4.16667,0,6709.97)">
                    <path d="M222.199,33.324C221.766,33.324 221.379,33.418 221.035,33.609C220.695,33.797 220.406,34.051 220.172,34.367C219.938,34.684 219.758,35.039 219.633,35.441C219.508,35.84 219.445,36.246 219.445,36.66C219.445,37.145 219.504,37.598 219.613,38.012C219.727,38.43 219.902,38.785 220.145,39.09C220.387,39.391 220.699,39.633 221.074,39.805C221.453,39.977 221.898,40.063 222.422,40.063C222.746,40.063 223.09,40.039 223.438,39.984C223.789,39.938 224.117,39.848 224.422,39.727L224.344,38.844C224.223,38.914 224.086,38.977 223.934,39.031C223.781,39.09 223.625,39.133 223.461,39.176C223.293,39.211 223.129,39.246 222.965,39.266C222.801,39.285 222.648,39.297 222.512,39.297C222.172,39.297 221.875,39.234 221.613,39.109C221.355,38.984 221.137,38.813 220.957,38.598C220.781,38.379 220.648,38.129 220.559,37.844C220.477,37.555 220.43,37.258 220.43,36.945L224.758,36.945L224.758,36.555C224.758,36.121 224.711,35.711 224.613,35.32C224.52,34.934 224.371,34.59 224.164,34.289C223.961,33.992 223.699,33.754 223.375,33.582C223.051,33.41 222.656,33.324 222.199,33.324M220.43,36.246C220.43,36.027 220.469,35.793 220.543,35.535C220.617,35.281 220.73,35.043 220.879,34.828C221.031,34.613 221.215,34.434 221.441,34.289C221.656,34.145 221.914,34.078 222.211,34.078C222.508,34.078 222.758,34.141 222.957,34.277C223.16,34.41 223.324,34.582 223.445,34.785C223.566,35 223.656,35.23 223.711,35.484C223.77,35.742 223.797,35.992 223.797,36.246L220.43,36.246" style="fill:rgb(62,59,60);fill-rule:nonzero;"/>
                </g>
                <g transform="matrix(4.16667,0,0,4.16667,0,6709.39)">
                    <path d="M228.785,33.465C228.586,33.465 228.395,33.5 228.215,33.582C228.031,33.656 227.867,33.758 227.719,33.891C227.574,34.02 227.441,34.168 227.332,34.328C227.219,34.488 227.129,34.648 227.07,34.816L227.016,33.59L226.148,33.59C226.176,33.84 226.188,34.098 226.199,34.351C226.211,34.605 226.215,34.859 226.215,35.113L226.215,40.063L227.164,40.063L227.164,36.851C227.164,36.601 227.184,36.332 227.227,36.039C227.27,35.75 227.348,35.484 227.469,35.238C227.582,34.992 227.746,34.785 227.953,34.625C228.16,34.465 228.43,34.383 228.758,34.383C228.93,34.383 229.105,34.41 229.277,34.465L229.332,33.512L229.059,33.469L228.785,33.465" style="fill:rgb(62,59,60);fill-rule:nonzero;"/>
                </g>
                <g transform="matrix(4.16667,0,0,4.16667,0,6709.97)">
                    <path d="M232.227,33.32C231.961,33.32 231.695,33.355 231.43,33.426C231.164,33.496 230.926,33.602 230.715,33.746C230.504,33.887 230.332,34.07 230.203,34.289C230.07,34.512 230.004,34.777 230.004,35.09C230.004,35.418 230.082,35.688 230.242,35.902C230.395,36.113 230.59,36.289 230.816,36.434C231.051,36.578 231.301,36.699 231.57,36.801C231.844,36.91 232.094,37.02 232.324,37.141C232.555,37.262 232.746,37.406 232.902,37.57C233.059,37.734 233.137,37.945 233.137,38.207C233.137,38.57 233.004,38.84 232.734,39.02C232.465,39.195 232.148,39.285 231.789,39.285C231.492,39.285 231.199,39.254 230.902,39.188C230.605,39.121 230.332,39.02 230.07,38.879L229.992,39.77C230.289,39.875 230.59,39.957 230.902,40C231.215,40.043 231.527,40.066 231.84,40.066C232.125,40.066 232.402,40.027 232.676,39.945C232.949,39.867 233.191,39.754 233.402,39.59C233.617,39.43 233.789,39.234 233.918,39C234.047,38.766 234.113,38.492 234.113,38.18C234.113,37.816 234.035,37.516 233.879,37.277C233.723,37.039 233.531,36.84 233.301,36.68C233.07,36.52 232.82,36.383 232.547,36.273C232.273,36.16 232.02,36.047 231.793,35.941C231.563,35.832 231.371,35.707 231.215,35.574C231.059,35.441 230.98,35.273 230.98,35.074C230.98,34.875 231.02,34.711 231.098,34.59C231.176,34.461 231.281,34.363 231.41,34.289C231.539,34.215 231.68,34.164 231.84,34.133C231.992,34.105 232.148,34.09 232.305,34.09C232.531,34.09 232.777,34.113 233.047,34.172C233.316,34.23 233.555,34.305 233.762,34.402L233.84,33.609C233.586,33.512 233.324,33.441 233.047,33.391C232.77,33.344 232.496,33.32 232.227,33.32" style="fill:rgb(62,59,60);fill-rule:nonzero;"/>
                </g>
                <g transform="matrix(4.16667,0,0,4.16667,0,6699.18)">
                    <path d="M236.477,33.465L235.528,33.465L235.528,34.598L236.477,34.598L236.477,33.465ZM236.477,36.039L235.528,36.039L235.528,42.512L236.477,42.512L236.477,36.039Z" style="fill:rgb(62,59,60);fill-rule:nonzero;"/>
                </g>
                <g transform="matrix(4.16667,0,0,4.16667,0,6703.09)">
                    <path d="M239.789,33.324L238.852,33.644L238.852,35.105L237.633,35.105L237.633,35.844L238.852,35.844L238.852,39.574C238.852,39.867 238.867,40.144 238.902,40.406C238.93,40.664 238.996,40.891 239.102,41.09C239.203,41.281 239.355,41.437 239.559,41.547C239.754,41.66 240.02,41.715 240.348,41.715C240.523,41.715 240.699,41.699 240.879,41.672C241.063,41.641 241.238,41.594 241.402,41.523L241.348,40.73L240.992,40.855C240.871,40.883 240.75,40.898 240.621,40.898C240.281,40.898 240.059,40.789 239.949,40.574C239.844,40.359 239.789,40.105 239.789,39.82L239.789,35.844L241.258,35.844L241.258,35.105L239.789,35.105L239.789,33.324" style="fill:rgb(62,59,60);fill-rule:nonzero;"/>
                </g>
                <g transform="matrix(4.16667,0,0,4.16667,0,6722.21)">
                    <path d="M247.313,30.516L246.324,30.516L244.598,36.086L242.855,30.516L241.832,30.516L244.078,37.207L243.945,37.637C243.91,37.746 243.863,37.887 243.797,38.055C243.73,38.223 243.652,38.391 243.555,38.551C243.461,38.711 243.348,38.848 243.211,38.961C243.078,39.07 242.922,39.129 242.738,39.129L242.438,39.098L242.152,39.012L242.078,39.828C242.223,39.867 242.352,39.891 242.453,39.906C242.555,39.922 242.691,39.934 242.855,39.934C243.098,39.934 243.316,39.887 243.512,39.793C243.707,39.699 243.879,39.566 244.027,39.398C244.176,39.234 244.309,39.047 244.422,38.82C244.539,38.605 244.641,38.367 244.727,38.113L247.313,30.516" style="fill:rgb(62,59,60);fill-rule:nonzero;"/>
                </g>
                <g transform="matrix(4.16667,0,0,4.16667,0,6709.97)">
                    <path d="M255.605,33.324C255.129,33.324 254.703,33.41 254.324,33.582C253.945,33.754 253.629,33.992 253.367,34.297C253.109,34.598 252.914,34.949 252.777,35.355C252.645,35.758 252.578,36.195 252.578,36.66C252.578,37.125 252.641,37.566 252.766,37.977C252.891,38.391 253.082,38.754 253.34,39.063C253.594,39.375 253.91,39.621 254.285,39.797C254.664,39.977 255.102,40.063 255.605,40.063C256.105,40.063 256.547,39.977 256.922,39.797C257.301,39.621 257.613,39.375 257.863,39.063C258.117,38.754 258.305,38.391 258.438,37.977C258.563,37.566 258.633,37.125 258.633,36.66C258.633,36.184 258.57,35.742 258.441,35.336C258.316,34.93 258.129,34.574 257.875,34.277C257.625,33.977 257.309,33.746 256.93,33.574C256.547,33.406 256.105,33.324 255.605,33.324M255.605,39.273C255.25,39.273 254.949,39.195 254.695,39.035C254.441,38.879 254.23,38.68 254.066,38.434C253.906,38.188 253.785,37.906 253.711,37.598C253.641,37.285 253.605,36.973 253.605,36.66C253.605,36.348 253.641,36.039 253.711,35.734C253.785,35.434 253.906,35.164 254.066,34.922C254.23,34.676 254.441,34.48 254.695,34.336C254.949,34.188 255.25,34.113 255.605,34.113C255.965,34.113 256.273,34.188 256.527,34.328C256.781,34.469 256.988,34.66 257.145,34.898C257.305,35.137 257.422,35.41 257.496,35.715C257.57,36.027 257.605,36.34 257.605,36.66C257.605,36.973 257.566,37.285 257.488,37.598C257.41,37.906 257.293,38.188 257.133,38.434C256.973,38.68 256.77,38.879 256.516,39.035C256.262,39.195 255.957,39.273 255.605,39.273" style="fill:rgb(62,59,60);fill-rule:nonzero;"/>
                </g>
                <g transform="matrix(4.16667,0,0,4.16667,0,6697.31)">
                    <path d="M262.449,33.465C262.051,33.465 261.738,33.535 261.508,33.676C261.281,33.82 261.105,34 260.988,34.219C260.871,34.43 260.797,34.668 260.762,34.926C260.727,35.18 260.711,35.426 260.711,35.66L260.711,36.492L259.449,36.492L259.449,37.242L260.711,37.242L260.711,42.961L261.66,42.961L261.66,37.242L263.098,37.242L263.098,36.492L261.645,36.492L261.645,35.617C261.645,35.531 261.648,35.414 261.652,35.262C261.656,35.109 261.684,34.961 261.742,34.816C261.801,34.668 261.891,34.535 262.02,34.422C262.152,34.312 262.336,34.254 262.578,34.254L262.898,34.281L263.203,34.371L263.281,33.59C263.168,33.531 263.031,33.496 262.871,33.48C262.715,33.469 262.57,33.465 262.449,33.465" style="fill:rgb(62,59,60);fill-rule:nonzero;"/>
                </g>
                <g transform="matrix(4.16667,0,0,4.16667,0,6700.76)">
                    <path d="M273.43,33.465L268.965,33.465L268.965,42.133L273.574,42.133L273.574,41.289L269.988,41.289L269.988,38.09L273.262,38.09L273.262,37.269L269.988,37.269L269.988,34.312L273.43,34.312" style="fill:rgb(62,59,60);fill-rule:nonzero;"/>
                </g>
                <g transform="matrix(4.16667,0,0,4.16667,0,6697.85)">
                    <rect x="275.121" y="33.461" width="0.945" height="9.375" style="fill:rgb(62,59,60);"/>
                </g>
                <g transform="matrix(4.16667,0,0,4.16667,0,6709.97)">
                    <path d="M280.316,33.324C279.883,33.324 279.496,33.418 279.152,33.609C278.813,33.797 278.523,34.051 278.289,34.367C278.055,34.684 277.875,35.039 277.75,35.441C277.625,35.84 277.563,36.246 277.563,36.66C277.563,37.145 277.621,37.598 277.73,38.012C277.844,38.43 278.023,38.785 278.266,39.09C278.508,39.391 278.816,39.633 279.195,39.805C279.57,39.977 280.02,40.063 280.539,40.063C280.867,40.063 281.207,40.039 281.555,39.984C281.906,39.938 282.234,39.848 282.539,39.727L282.461,38.844C282.34,38.914 282.203,38.977 282.051,39.031C281.898,39.09 281.742,39.133 281.578,39.176C281.414,39.211 281.246,39.246 281.086,39.266C280.918,39.285 280.77,39.297 280.629,39.297C280.289,39.297 279.992,39.234 279.73,39.109C279.473,38.984 279.254,38.813 279.078,38.598C278.898,38.379 278.766,38.129 278.68,37.844C278.594,37.555 278.547,37.258 278.547,36.945L282.875,36.945L282.875,36.555C282.875,36.121 282.832,35.711 282.73,35.32C282.637,34.934 282.488,34.59 282.285,34.289C282.082,33.992 281.816,33.754 281.492,33.582C281.168,33.41 280.777,33.324 280.316,33.324M278.547,36.246C278.547,36.027 278.586,35.793 278.66,35.535C278.734,35.281 278.848,35.043 279,34.828C279.148,34.613 279.336,34.434 279.559,34.289C279.777,34.145 280.035,34.078 280.328,34.078C280.625,34.078 280.875,34.141 281.078,34.277C281.281,34.41 281.441,34.582 281.563,34.785C281.688,35 281.773,35.23 281.832,35.484C281.887,35.742 281.914,35.992 281.914,36.246L278.547,36.246" style="fill:rgb(62,59,60);fill-rule:nonzero;"/>
                </g>
                <g transform="matrix(4.16667,0,0,4.16667,0,6709.97)">
                    <path d="M287.137,33.32C286.645,33.32 286.199,33.406 285.805,33.574C285.41,33.746 285.078,33.973 284.801,34.27C284.527,34.566 284.316,34.918 284.164,35.328C284.016,35.738 283.941,36.184 283.941,36.66C283.941,37.125 284.008,37.57 284.145,37.988C284.281,38.402 284.484,38.766 284.75,39.07C285.016,39.379 285.344,39.617 285.73,39.797C286.113,39.977 286.551,40.066 287.047,40.066C287.332,40.066 287.613,40.047 287.891,40.012C288.168,39.98 288.445,39.914 288.723,39.82L288.66,38.973C288.43,39.07 288.199,39.141 287.961,39.195C287.727,39.246 287.48,39.273 287.23,39.273C286.855,39.273 286.527,39.199 286.246,39.055C285.965,38.914 285.73,38.723 285.539,38.48C285.348,38.238 285.203,37.957 285.109,37.641C285.016,37.324 284.965,37 284.965,36.66C284.965,36.297 285.016,35.957 285.109,35.648C285.203,35.336 285.352,35.066 285.547,34.844C285.742,34.613 285.984,34.441 286.273,34.309C286.563,34.18 286.902,34.113 287.293,34.113C287.527,34.113 287.758,34.145 287.988,34.203C288.215,34.266 288.438,34.344 288.645,34.441L288.723,33.594C288.469,33.508 288.211,33.441 287.941,33.391C287.676,33.344 287.406,33.32 287.137,33.32" style="fill:rgb(62,59,60);fill-rule:nonzero;"/>
                </g>
                <g transform="matrix(4.16667,0,0,4.16667,0,6703.09)">
                    <path d="M291.516,33.324L290.582,33.644L290.582,35.105L289.359,35.105L289.359,35.844L290.582,35.844L290.582,39.574C290.582,39.867 290.594,40.144 290.625,40.406C290.656,40.664 290.723,40.891 290.828,41.09C290.93,41.281 291.082,41.437 291.281,41.547C291.48,41.66 291.746,41.715 292.074,41.715C292.246,41.715 292.426,41.699 292.609,41.672C292.789,41.641 292.961,41.594 293.129,41.523L293.074,40.73L292.719,40.855C292.602,40.883 292.477,40.898 292.348,40.898C292.012,40.898 291.785,40.789 291.68,40.574C291.57,40.359 291.516,40.105 291.516,39.82L291.516,35.844L292.984,35.844L292.984,35.105L291.516,35.105L291.516,33.324" style="fill:rgb(62,59,60);fill-rule:nonzero;"/>
                </g>
                <g transform="matrix(4.16667,0,0,4.16667,0,6709.39)">
                    <path d="M296.918,33.465C296.723,33.465 296.531,33.5 296.348,33.582C296.168,33.656 296.004,33.758 295.855,33.891C295.707,34.02 295.578,34.168 295.465,34.328C295.355,34.488 295.266,34.648 295.207,34.816L295.152,33.59L294.285,33.59C294.309,33.84 294.324,34.098 294.336,34.351C294.344,34.605 294.352,34.859 294.352,35.113L294.352,40.063L295.297,40.063L295.297,36.851C295.297,36.601 295.316,36.332 295.363,36.039C295.402,35.75 295.484,35.484 295.602,35.238C295.719,34.992 295.883,34.785 296.086,34.625C296.297,34.465 296.566,34.383 296.895,34.383C297.066,34.383 297.242,34.41 297.414,34.465L297.465,33.512L297.195,33.469L296.918,33.465" style="fill:rgb(62,59,60);fill-rule:nonzero;"/>
                </g>
                <g transform="matrix(4.16667,0,0,4.16667,0,6709.97)">
                    <path d="M301.09,33.324C300.613,33.324 300.188,33.41 299.813,33.582C299.434,33.754 299.117,33.992 298.855,34.297C298.598,34.598 298.402,34.949 298.266,35.355C298.129,35.758 298.063,36.195 298.063,36.66C298.063,37.125 298.125,37.566 298.254,37.977C298.375,38.391 298.57,38.754 298.824,39.063C299.082,39.375 299.395,39.621 299.773,39.797C300.148,39.977 300.59,40.063 301.09,40.063C301.594,40.063 302.031,39.977 302.41,39.797C302.785,39.621 303.098,39.375 303.352,39.063C303.602,38.754 303.793,38.391 303.926,37.977C304.051,37.566 304.117,37.125 304.117,36.66C304.117,36.184 304.055,35.742 303.93,35.336C303.801,34.93 303.617,34.574 303.363,34.277C303.113,33.977 302.797,33.746 302.418,33.574C302.035,33.406 301.594,33.324 301.09,33.324M301.09,39.273C300.738,39.273 300.434,39.195 300.18,39.035C299.926,38.879 299.715,38.68 299.555,38.434C299.391,38.188 299.273,37.906 299.199,37.598C299.125,37.285 299.09,36.973 299.09,36.66C299.09,36.348 299.125,36.039 299.199,35.734C299.273,35.434 299.391,35.164 299.555,34.922C299.715,34.676 299.926,34.48 300.18,34.336C300.434,34.188 300.738,34.113 301.09,34.113C301.453,34.113 301.758,34.188 302.012,34.328C302.266,34.469 302.477,34.66 302.633,34.898C302.793,35.137 302.91,35.41 302.98,35.715C303.055,36.027 303.09,36.34 303.09,36.66C303.09,36.973 303.051,37.285 302.977,37.598C302.898,37.906 302.777,38.188 302.621,38.434C302.461,38.68 302.254,38.879 302.004,39.035C301.746,39.195 301.445,39.273 301.09,39.273" style="fill:rgb(62,59,60);fill-rule:nonzero;"/>
                </g>
                <g transform="matrix(4.16667,0,0,4.16667,0,6703.32)">
                    <rect x="305.172" y="37.063" width="3.141" height="0.859" style="fill:rgb(62,59,60);"/>
                </g>
                <g transform="matrix(4.16667,0,0,4.16667,0,6700.82)">
                    <path d="M313.941,33.32C313.281,33.32 312.68,33.434 312.133,33.66C311.59,33.883 311.117,34.195 310.723,34.59C310.332,34.98 310.023,35.449 309.809,35.996C309.594,36.543 309.484,37.137 309.484,37.789C309.484,38.465 309.59,39.078 309.793,39.629C310.004,40.18 310.301,40.648 310.688,41.039C311.07,41.43 311.539,41.73 312.09,41.941C312.637,42.152 313.258,42.262 313.941,42.262C314.262,42.262 314.613,42.234 315,42.176C315.383,42.117 315.719,42.02 316.008,41.871L315.93,41C315.625,41.141 315.305,41.238 314.973,41.289C314.637,41.34 314.309,41.363 313.977,41.363C313.434,41.363 312.949,41.277 312.523,41.105C312.098,40.934 311.742,40.688 311.453,40.371C311.164,40.059 310.941,39.68 310.789,39.242C310.637,38.797 310.563,38.32 310.563,37.789C310.563,37.281 310.641,36.809 310.797,36.371C310.953,35.938 311.18,35.559 311.469,35.238C311.766,34.922 312.125,34.672 312.551,34.488C312.973,34.309 313.453,34.215 313.992,34.215C314.293,34.215 314.621,34.246 314.965,34.305C315.313,34.363 315.625,34.457 315.898,34.582L315.98,33.66C315.691,33.535 315.359,33.449 314.98,33.398C314.602,33.348 314.254,33.32 313.941,33.32" style="fill:rgb(62,59,60);fill-rule:nonzero;"/>
                </g>
                <g transform="matrix(4.16667,0,0,4.16667,0,6709.97)">
                    <path d="M320.059,33.324C319.582,33.324 319.156,33.41 318.781,33.582C318.402,33.754 318.086,33.992 317.824,34.297C317.563,34.598 317.367,34.949 317.234,35.355C317.098,35.758 317.031,36.195 317.031,36.66C317.031,37.125 317.094,37.566 317.223,37.977C317.344,38.391 317.535,38.754 317.793,39.063C318.047,39.375 318.363,39.621 318.742,39.797C319.117,39.977 319.559,40.063 320.059,40.063C320.563,40.063 321,39.977 321.379,39.797C321.754,39.621 322.066,39.375 322.32,39.063C322.57,38.754 322.762,38.391 322.891,37.977C323.02,37.566 323.086,37.125 323.086,36.66C323.086,36.184 323.023,35.742 322.898,35.336C322.77,34.93 322.582,34.574 322.332,34.277C322.082,33.977 321.766,33.746 321.383,33.574C321,33.406 320.563,33.324 320.059,33.324M320.059,39.273C319.707,39.273 319.402,39.195 319.148,39.035C318.895,38.879 318.684,38.68 318.52,38.434C318.359,38.188 318.242,37.906 318.168,37.598C318.094,37.285 318.059,36.973 318.059,36.66C318.059,36.348 318.094,36.039 318.168,35.734C318.242,35.434 318.359,35.164 318.52,34.922C318.684,34.676 318.895,34.48 319.148,34.336C319.402,34.188 319.707,34.113 320.059,34.113C320.422,34.113 320.727,34.188 320.98,34.328C321.234,34.469 321.438,34.66 321.602,34.898C321.762,35.137 321.875,35.41 321.949,35.715C322.023,36.027 322.059,36.34 322.059,36.66C322.059,36.973 322.02,37.285 321.941,37.598C321.867,37.906 321.746,38.188 321.59,38.434C321.43,38.68 321.223,38.879 320.969,39.035C320.715,39.195 320.41,39.273 320.059,39.273" style="fill:rgb(62,59,60);fill-rule:nonzero;"/>
                </g>
                <g transform="matrix(4.16667,0,0,4.16667,0,6709.39)">
                    <path d="M331.203,33.465C330.996,33.465 330.793,33.496 330.594,33.563C330.395,33.625 330.207,33.715 330.031,33.832C329.852,33.949 329.695,34.09 329.563,34.258C329.426,34.43 329.32,34.613 329.242,34.816C329.199,34.648 329.129,34.484 329.027,34.32C328.93,34.156 328.801,34.012 328.641,33.887C328.48,33.758 328.293,33.656 328.082,33.578C327.867,33.5 327.629,33.465 327.359,33.465C326.504,33.465 325.855,33.875 325.422,34.707L325.387,33.59L324.512,33.59C324.539,33.84 324.559,34.098 324.566,34.351C324.574,34.605 324.578,34.859 324.578,35.113L324.578,40.063L325.527,40.063L325.527,36.566C325.527,36.281 325.559,36 325.613,35.73C325.668,35.453 325.762,35.211 325.891,34.996C326.023,34.777 326.191,34.601 326.398,34.469C326.605,34.336 326.855,34.266 327.152,34.266C327.395,34.266 327.598,34.308 327.762,34.391C327.926,34.473 328.059,34.586 328.152,34.723C328.246,34.859 328.316,35.023 328.359,35.215C328.406,35.406 328.426,35.609 328.426,35.828L328.426,40.063L329.371,40.063L329.371,36.566C329.371,36.281 329.402,36 329.457,35.73C329.516,35.453 329.605,35.211 329.738,34.996C329.867,34.777 330.035,34.601 330.238,34.469C330.441,34.336 330.688,34.266 330.984,34.266C331.227,34.266 331.43,34.308 331.594,34.391C331.758,34.473 331.895,34.586 331.992,34.723C332.09,34.859 332.164,35.023 332.203,35.215C332.25,35.406 332.27,35.609 332.27,35.828L332.27,40.063L333.219,40.063L333.219,35.656C333.219,35.344 333.176,35.055 333.09,34.785C333,34.52 332.875,34.285 332.703,34.09C332.535,33.898 332.328,33.746 332.078,33.633C331.824,33.52 331.535,33.465 331.203,33.465" style="fill:rgb(62,59,60);fill-rule:nonzero;"/>
                </g>
                <g transform="matrix(4.16667,0,0,4.16667,0,6709.39)">
                    <path d="M341.727,33.465C341.52,33.465 341.316,33.496 341.117,33.563C340.918,33.625 340.73,33.715 340.555,33.832C340.375,33.949 340.219,34.09 340.086,34.258C339.949,34.43 339.844,34.613 339.766,34.816C339.723,34.648 339.652,34.484 339.551,34.32C339.453,34.156 339.324,34.012 339.164,33.887C339.004,33.758 338.816,33.656 338.602,33.578C338.391,33.5 338.152,33.465 337.883,33.465C337.027,33.465 336.379,33.875 335.949,34.707L335.91,33.59L335.039,33.59C335.063,33.84 335.082,34.098 335.09,34.351C335.098,34.605 335.102,34.859 335.102,35.113L335.102,40.063L336.051,40.063L336.051,36.566C336.051,36.281 336.078,36 336.137,35.73C336.191,35.453 336.285,35.211 336.414,34.996C336.547,34.777 336.715,34.601 336.922,34.469C337.129,34.336 337.379,34.266 337.676,34.266C337.918,34.266 338.121,34.308 338.285,34.391C338.449,34.473 338.578,34.586 338.676,34.723C338.77,34.859 338.84,35.023 338.883,35.215C338.926,35.406 338.949,35.609 338.949,35.828L338.949,40.063L339.895,40.063L339.895,36.566C339.895,36.281 339.926,36 339.98,35.73C340.039,35.453 340.129,35.211 340.258,34.996C340.391,34.777 340.559,34.601 340.762,34.469C340.965,34.336 341.215,34.266 341.508,34.266C341.75,34.266 341.953,34.308 342.117,34.391C342.281,34.473 342.414,34.586 342.516,34.723C342.613,34.859 342.684,35.023 342.73,35.215C342.773,35.406 342.793,35.609 342.793,35.828L342.793,40.063L343.742,40.063L343.742,35.656C343.742,35.344 343.699,35.055 343.613,34.785C343.527,34.52 343.398,34.285 343.23,34.09C343.059,33.898 342.848,33.746 342.598,33.633C342.348,33.52 342.059,33.465 341.727,33.465" style="fill:rgb(62,59,60);fill-rule:nonzero;"/>
                </g>
                <g transform="matrix(4.16667,0,0,4.16667,0,6710.53)">
                    <path d="M350.68,33.32L349.742,33.32L349.742,36.801C349.742,37.086 349.715,37.367 349.66,37.645C349.605,37.922 349.504,38.172 349.367,38.383C349.23,38.602 349.047,38.777 348.82,38.91C348.594,39.047 348.316,39.113 347.977,39.113C347.664,39.113 347.414,39.059 347.23,38.949C347.043,38.844 346.902,38.695 346.801,38.516C346.703,38.332 346.633,38.125 346.602,37.891C346.566,37.66 346.547,37.414 346.547,37.152L346.547,33.32L345.602,33.32L345.602,37.32C345.602,37.695 345.637,38.039 345.703,38.359C345.773,38.68 345.891,38.957 346.059,39.195C346.23,39.426 346.449,39.609 346.723,39.738C346.996,39.867 347.34,39.934 347.754,39.934C348.23,39.934 348.645,39.824 348.992,39.613C349.336,39.402 349.621,39.086 349.848,38.672L349.875,39.789L350.742,39.789C350.719,39.535 350.703,39.281 350.691,39.027C350.684,38.773 350.68,38.523 350.68,38.27L350.68,33.32" style="fill:rgb(62,59,60);fill-rule:nonzero;"/>
                </g>
                <g transform="matrix(4.16667,0,0,4.16667,0,6709.39)">
                    <path d="M355.512,33.465C354.574,33.465 353.879,33.875 353.418,34.707L353.379,33.59L352.512,33.59C352.535,33.84 352.555,34.098 352.563,34.351C352.57,34.605 352.574,34.859 352.574,35.113L352.574,40.063L353.523,40.063L353.523,36.582C353.523,36.293 353.555,36.012 353.609,35.734C353.664,35.457 353.762,35.211 353.898,34.996C354.039,34.777 354.223,34.601 354.445,34.469C354.672,34.336 354.953,34.266 355.293,34.266C355.605,34.266 355.855,34.324 356.047,34.43C356.234,34.539 356.383,34.68 356.488,34.863C356.59,35.047 356.656,35.254 356.695,35.488C356.727,35.723 356.746,35.969 356.746,36.23L356.746,40.063L357.68,40.063L357.68,36.047C357.68,35.676 357.645,35.332 357.578,35.012C357.508,34.695 357.391,34.426 357.219,34.195C357.051,33.965 356.828,33.785 356.551,33.656C356.277,33.523 355.926,33.465 355.512,33.465" style="fill:rgb(62,59,60);fill-rule:nonzero;"/>
                </g>
                <g transform="matrix(4.16667,0,0,4.16667,0,6699.18)">
                    <path d="M360.527,33.465L359.578,33.465L359.578,34.598L360.527,34.598L360.527,33.465ZM360.527,36.039L359.578,36.039L359.578,42.512L360.527,42.512L360.527,36.039Z" style="fill:rgb(62,59,60);fill-rule:nonzero;"/>
                </g>
                <g transform="matrix(4.16667,0,0,4.16667,0,6709.97)">
                    <path d="M365.215,33.32C364.723,33.32 364.277,33.406 363.883,33.574C363.488,33.746 363.156,33.973 362.883,34.27C362.605,34.566 362.395,34.918 362.246,35.328C362.094,35.738 362.02,36.184 362.02,36.66C362.02,37.125 362.086,37.57 362.223,37.988C362.359,38.402 362.563,38.766 362.828,39.07C363.094,39.379 363.422,39.617 363.809,39.797C364.191,39.977 364.633,40.066 365.129,40.066C365.41,40.066 365.695,40.047 365.969,40.012C366.246,39.98 366.523,39.914 366.801,39.82L366.734,38.973C366.508,39.07 366.281,39.141 366.039,39.195C365.801,39.246 365.559,39.273 365.309,39.273C364.934,39.273 364.609,39.199 364.324,39.055C364.047,38.914 363.809,38.723 363.617,38.48C363.426,38.238 363.285,37.957 363.191,37.641C363.094,37.324 363.047,37 363.047,36.66C363.047,36.297 363.094,35.957 363.191,35.648C363.285,35.336 363.43,35.066 363.625,34.844C363.82,34.613 364.063,34.441 364.355,34.309C364.641,34.18 364.98,34.113 365.375,34.113C365.605,34.113 365.836,34.145 366.066,34.203C366.297,34.266 366.516,34.344 366.723,34.441L366.801,33.594C366.551,33.508 366.289,33.441 366.023,33.391C365.754,33.344 365.484,33.32 365.215,33.32" style="fill:rgb(62,59,60);fill-rule:nonzero;"/>
                </g>
                <g transform="matrix(4.16667,0,0,4.16667,0,6709.97)">
                    <path d="M370.324,33.32C370.02,33.32 369.684,33.363 369.316,33.445C368.949,33.527 368.621,33.629 368.348,33.75L368.426,34.598C368.711,34.406 369.012,34.27 369.32,34.191C369.633,34.113 369.953,34.078 370.281,34.078C370.82,34.078 371.195,34.215 371.414,34.504C371.629,34.789 371.738,35.18 371.738,35.676L371.738,35.984L371.234,35.984C370.738,35.984 370.27,36.023 369.836,36.102C369.398,36.18 369.02,36.305 368.699,36.488C368.379,36.664 368.125,36.895 367.938,37.18C367.754,37.465 367.656,37.816 367.656,38.23C367.656,38.543 367.719,38.816 367.828,39.043C367.941,39.277 368.094,39.465 368.281,39.617C368.473,39.77 368.699,39.879 368.961,39.953C369.219,40.027 369.492,40.066 369.777,40.066C370.184,40.066 370.574,39.961 370.949,39.762C371.328,39.555 371.609,39.266 371.789,38.879L371.828,39.922L372.75,39.922C372.719,39.695 372.695,39.469 372.688,39.246C372.68,39.02 372.676,38.789 372.676,38.543L372.676,35.738C372.676,34.926 372.488,34.32 372.109,33.918C371.734,33.52 371.137,33.32 370.324,33.32M369.945,39.297C369.773,39.297 369.605,39.277 369.445,39.234C369.285,39.191 369.145,39.121 369.023,39.031C368.902,38.941 368.805,38.828 368.738,38.688C368.668,38.547 368.633,38.383 368.633,38.195C368.633,37.84 368.73,37.559 368.926,37.355C369.121,37.156 369.367,37 369.66,36.902C369.953,36.801 370.27,36.738 370.613,36.711C370.957,36.688 371.27,36.672 371.559,36.672L371.738,36.672L371.738,37.066C371.738,37.363 371.711,37.652 371.652,37.922C371.598,38.191 371.5,38.426 371.363,38.629C371.223,38.836 371.039,38.996 370.809,39.117C370.578,39.238 370.289,39.297 369.945,39.297" style="fill:rgb(62,59,60);fill-rule:nonzero;"/>
                </g>
                <g transform="matrix(4.16667,0,0,4.16667,0,6703.09)">
                    <path d="M376,33.324L375.066,33.644L375.066,35.105L373.844,35.105L373.844,35.844L375.066,35.844L375.066,39.574C375.066,39.867 375.078,40.144 375.109,40.406C375.141,40.664 375.207,40.891 375.313,41.09C375.414,41.281 375.566,41.437 375.766,41.547C375.965,41.66 376.23,41.715 376.559,41.715C376.73,41.715 376.91,41.699 377.094,41.672C377.273,41.641 377.445,41.594 377.613,41.523L377.559,40.73L377.203,40.855C377.082,40.883 376.961,40.898 376.832,40.898C376.496,40.898 376.27,40.789 376.164,40.574C376.055,40.359 376,40.105 376,39.82L376,35.844L377.469,35.844L377.469,35.105L376,35.105L376,33.324" style="fill:rgb(62,59,60);fill-rule:nonzero;"/>
                </g>
                <g transform="matrix(4.16667,0,0,4.16667,0,6699.18)">
                    <path d="M379.781,33.465L378.832,33.465L378.832,34.598L379.781,34.598L379.781,33.465ZM379.781,36.039L378.832,36.039L378.832,42.512L379.781,42.512L379.781,36.039Z" style="fill:rgb(62,59,60);fill-rule:nonzero;"/>
                </g>
                <g transform="matrix(4.16667,0,0,4.16667,0,6709.97)">
                    <path d="M384.301,33.324C383.824,33.324 383.398,33.41 383.023,33.582C382.645,33.754 382.328,33.992 382.066,34.297C381.809,34.598 381.613,34.949 381.477,35.355C381.344,35.758 381.273,36.195 381.273,36.66C381.273,37.125 381.336,37.566 381.465,37.977C381.59,38.391 381.781,38.754 382.035,39.063C382.293,39.375 382.605,39.621 382.984,39.797C383.359,39.977 383.801,40.063 384.301,40.063C384.805,40.063 385.242,39.977 385.621,39.797C385.996,39.621 386.309,39.375 386.563,39.063C386.813,38.754 387.004,38.391 387.137,37.977C387.262,37.566 387.328,37.125 387.328,36.66C387.328,36.184 387.266,35.742 387.141,35.336C387.012,34.93 386.828,34.574 386.574,34.277C386.324,33.977 386.008,33.746 385.629,33.574C385.246,33.406 384.805,33.324 384.301,33.324M384.301,39.273C383.949,39.273 383.645,39.195 383.391,39.035C383.137,38.879 382.926,38.68 382.762,38.434C382.602,38.188 382.484,37.906 382.41,37.598C382.336,37.285 382.301,36.973 382.301,36.66C382.301,36.348 382.336,36.039 382.41,35.734C382.484,35.434 382.602,35.164 382.762,34.922C382.926,34.676 383.137,34.48 383.391,34.336C383.645,34.188 383.949,34.113 384.301,34.113C384.664,34.113 384.969,34.188 385.223,34.328C385.477,34.469 385.684,34.66 385.844,34.898C386.004,35.137 386.121,35.41 386.191,35.715C386.266,36.027 386.301,36.34 386.301,36.66C386.301,36.973 386.262,37.285 386.188,37.598C386.109,37.906 385.988,38.188 385.832,38.434C385.672,38.68 385.465,38.879 385.211,39.035C384.957,39.195 384.656,39.273 384.301,39.273" style="fill:rgb(62,59,60);fill-rule:nonzero;"/>
                </g>
                <g transform="matrix(4.16667,0,0,4.16667,0,6709.39)">
                    <path d="M391.758,33.465C390.824,33.465 390.125,33.875 389.668,34.707L389.629,33.59L388.758,33.59C388.781,33.84 388.801,34.098 388.809,34.351C388.816,34.605 388.824,34.859 388.824,35.113L388.824,40.063L389.77,40.063L389.77,36.582C389.77,36.293 389.801,36.012 389.855,35.734C389.91,35.457 390.008,35.211 390.148,34.996C390.285,34.777 390.465,34.601 390.691,34.469C390.918,34.336 391.199,34.266 391.539,34.266C391.852,34.266 392.102,34.324 392.293,34.43C392.48,34.539 392.629,34.68 392.734,34.863C392.84,35.047 392.906,35.254 392.941,35.488C392.977,35.723 392.992,35.969 392.992,36.23L392.992,40.063L393.93,40.063L393.93,36.047C393.93,35.676 393.895,35.332 393.824,35.012C393.758,34.695 393.637,34.426 393.465,34.195C393.297,33.965 393.074,33.785 392.797,33.656C392.523,33.523 392.176,33.465 391.758,33.465" style="fill:rgb(62,59,60);fill-rule:nonzero;"/>
                </g>
                <g transform="matrix(4.16667,0,0,4.16667,0,6709.97)">
                    <path d="M397.578,33.32C397.309,33.32 397.043,33.355 396.781,33.426C396.516,33.496 396.281,33.602 396.066,33.746C395.855,33.887 395.684,34.07 395.551,34.289C395.422,34.512 395.355,34.777 395.355,35.09C395.355,35.418 395.434,35.688 395.594,35.902C395.746,36.113 395.941,36.289 396.168,36.434C396.398,36.578 396.648,36.699 396.922,36.801C397.195,36.91 397.445,37.02 397.676,37.141C397.906,37.262 398.098,37.406 398.254,37.57C398.41,37.734 398.488,37.945 398.488,38.207C398.488,38.57 398.355,38.84 398.086,39.02C397.816,39.195 397.5,39.285 397.137,39.285C396.844,39.285 396.547,39.254 396.254,39.188C395.957,39.121 395.684,39.02 395.422,38.879L395.348,39.77C395.637,39.875 395.941,39.957 396.254,40C396.566,40.043 396.875,40.066 397.191,40.066C397.477,40.066 397.754,40.027 398.027,39.945C398.301,39.867 398.543,39.754 398.754,39.59C398.965,39.43 399.137,39.234 399.27,39C399.398,38.766 399.461,38.492 399.461,38.18C399.461,37.816 399.383,37.516 399.227,37.277C399.074,37.039 398.879,36.84 398.648,36.68C398.422,36.52 398.172,36.383 397.898,36.273C397.625,36.16 397.371,36.047 397.145,35.941C396.914,35.832 396.723,35.707 396.566,35.574C396.41,35.441 396.332,35.273 396.332,35.074C396.332,34.875 396.371,34.711 396.449,34.59C396.527,34.461 396.629,34.363 396.762,34.289C396.891,34.215 397.031,34.164 397.191,34.133C397.348,34.105 397.5,34.09 397.656,34.09C397.883,34.09 398.129,34.113 398.398,34.172C398.668,34.23 398.906,34.305 399.113,34.402L399.191,33.609C398.938,33.512 398.676,33.441 398.398,33.391C398.121,33.344 397.848,33.32 397.578,33.32" style="fill:rgb(62,59,60);fill-rule:nonzero;"/>
                </g>
            </g>
        </g>
    </g>
    <defs>
        <linearGradient id="_Linear3" x1="0" y1="0" x2="1" y2="0" gradientUnits="userSpaceOnUse" gradientTransform="matrix(63.4724,-0,0,-63.4724,65.7444,65.7115)"><stop offset="0" style="stop-color:rgb(78,185,224);stop-opacity:1"/><stop offset="0.7" style="stop-color:rgb(46,56,130);stop-opacity:1"/><stop offset="1" style="stop-color:rgb(46,56,130);stop-opacity:1"/></linearGradient>
        <linearGradient id="_Linear5" x1="0" y1="0" x2="1" y2="0" gradientUnits="userSpaceOnUse" gradientTransform="matrix(63.471,-0,0,63.4774,65.746,59.2225)"><stop offset="0" style="stop-color:rgb(26,167,203);stop-opacity:1"/><stop offset="0.7" style="stop-color:rgb(45,56,130);stop-opacity:1"/><stop offset="1" style="stop-color:rgb(45,56,130);stop-opacity:1"/></linearGradient>
        <radialGradient id="_Radial7" cx="0" cy="0" r="1" gradientUnits="userSpaceOnUse" gradientTransform="matrix(4.01292,4.5141,-4.51456,4.01252,45.891,31.903)"><stop offset="0" style="stop-color:white;stop-opacity:1"/><stop offset="1" style="stop-color:rgb(113,111,170);stop-opacity:1"/></radialGradient>
        <radialGradient id="_Radial9" cx="0" cy="0" r="1" gradientUnits="userSpaceOnUse" gradientTransform="matrix(3.24922,3.655,-3.65538,3.24888,124.527,65.4457)"><stop offset="0" style="stop-color:white;stop-opacity:1"/><stop offset="1" style="stop-color:rgb(113,111,170);stop-opacity:1"/></radialGradient>
        <radialGradient id="_Radial11" cx="0" cy="0" r="1" gradientUnits="userSpaceOnUse" gradientTransform="matrix(1.78642,2.00952,-2.00972,1.78624,107.82,90.655)"><stop offset="0" style="stop-color:white;stop-opacity:1"/><stop offset="1" style="stop-color:rgb(113,111,170);stop-opacity:1"/></radialGradient>
    </defs>
</svg>
